# xmcd
#
# Track frame offsets:
#	183
#	42215
#	75230
#	108913
#	140630
#	175085
#	213660
#	244233
#
# Disc length: 4213 seconds
#
# Revision: 1
# Processed by: cddbd v1.5.2PL0 Copyright (c) Steve Scherf et al.
# Submitted via: EasyCDDAExtractor 10.0.5.1
#
DISCID=66107308
DTITLE=Magyar népmesék - A csillagszemû juhász
DYEAR=1996
DGENRE=National Folk
TTITLE0=Hamupipőke királyfi
TTITLE1=Az égig érő paszuly
TTITLE2=A macskacicó
TTITLE3=Zöld Péter
TTITLE4=A só
TTITLE5=A szegény csizmadia és a Szélkirály
TTITLE6=A szállást kérõ róka
TTITLE7=A csillagszemû juhász
EXTD=YEAR: 1996
EXTT0=
EXTT1=
EXTT2=
EXTT3=
EXTT4=
EXTT5=
EXTT6=
EXTT7=
PLAYORDER=
